<svg xmlns="http://www.w3.org/2000/svg" xmlns:xlink="http://www.w3.org/1999/xlink" id="&#xB808;&#xC774;&#xC5B4;_1" x="0px" y="0px" viewBox="0 0 344.3 73.6" style="enable-background:new 0 0 344.3 73.6;" xml:space="preserve"><style type="text/css">	.st0{fill:#FF7F00;}</style><g>	<g>		<path class="st0" d="M156.8,12.6c-12.1,1.8-22.1,6.4-27.4,11.8c3.3-7.2,15.2-13.8,30.5-16.1c6.3-0.9,12.4-1,17.8-0.4   c-6.9-2-15.9-2.5-25.5-1.1C140,8.5,130,13.1,124.8,18.4C128,11.3,140,4.6,155.2,2.3c6.3-1,12.4-1,17.8-0.4c-6.9-2-16-2.5-25.5-1.1   c-19.2,2.9-33.1,12.6-31.2,21.7c0.5,2.5,2.2,4.7,4.8,6.5c0.7,2.3,2.3,4.2,4.7,5.9c1.7,5.7,9.7,9.7,20.3,10.9   c-6.9-2-11.7-5.5-12.7-10.1c-1.9-9.1,12-18.8,31.2-21.7c6.3-1,12.4-1,17.8-0.4C175.4,11.6,166.4,11.1,156.8,12.6z"></path>		<path class="st0" d="M173.2,45.5c-0.7-2.2-2.3-4.1-4.7-5.7c-1.7-5.6-9.7-9.4-20.2-10.6c6.9,2,11.7,5.4,12.7,9.8   c1.9,8.8-12,18.2-31.2,21c-6.3,0.9-12.4,1-17.8,0.4c6.9,2,15.9,2.5,25.5,1.1c12.1-1.8,22.1-6.2,27.4-11.4   c-3.3,7-15.2,13.4-30.5,15.6c-6.3,0.9-12.4,1-17.8,0.4c6.9,1.9,15.9,2.5,25.5,1.1c12.1-1.8,22.1-6.2,27.4-11.4   c-3.3,7-15.2,13.4-30.5,15.6c-6.3,0.9-12.4,1-17.8,0.4c6.9,1.9,16,2.5,25.5,1.1c19.2-2.8,33.1-12.2,31.2-21   C177.5,49.4,175.7,47.3,173.2,45.5z"></path>		<path class="st0" d="M29.6,18.6c-2.2-1.1-5.5-1.7-9.9-1.7H9.1l-0.3,1h0.5c1.2,0,2.1,0.2,2.5,0.6c0.4,0.4,0.6,0.9,0.6,1.6   c0,1-0.2,2.4-0.7,4.2L5.9,46.6c-0.6,2.3-1.1,3.8-1.6,4.6c-0.3,0.5-0.8,0.9-1.4,1.2c-0.4,0.2-1.3,0.3-2.6,0.4l-0.3,1h14   c3.4,0,6.2-0.4,8.5-1.2c2.3-0.8,4.4-2,6.3-3.7c1.9-1.7,3.4-3.2,4.3-4.5c0.9-1.4,1.8-3.2,2.5-5.5c0.7-2.3,1.1-4.6,1.1-7   c0-2.8-0.6-5.4-1.9-7.9C33.5,21.6,31.8,19.8,29.6,18.6z M29.8,41.6c-1.2,2.9-2.8,5.3-4.8,7c-1.4,1.1-3.2,2-5.4,2.6   c-2.2,0.6-4.6,0.9-7.1,0.9c-1,0-1.6-0.1-2.1-0.3c-0.3-0.1-0.5-0.3-0.7-0.5c-0.2-0.3-0.3-0.6-0.3-0.8c0-0.5,0.3-1.7,0.8-3.8   L17.5,19c1.4-0.1,2.5-0.1,3.4-0.1c3.5,0,6.2,1,8,3.1c1.8,2.1,2.7,5.2,2.7,9.5C31.6,35.3,31,38.6,29.8,41.6z"></path>		<path class="st0" d="M199.4,46.1V30.4h2.3v-4.6h-2.3v-4.6h-8.5v4.6H189v4.6h1.8v14.9c0,2.9,0.1,4.8,0.2,5.5s0.5,1.5,1.2,2.1   c0.6,0.6,1.4,1,2.2,1.2c0.8,0.2,2.2,0.3,4.1,0.3h3.4v-4.7c-1.4,0-2.2-0.1-2.4-0.3C199.4,49.1,199.4,48,199.4,46.1z"></path>		<path class="st0" d="M221.9,29l0.3-3.8h-8.5v29.3h8.5V42.8c0-2.8,0.1-4.6,0.3-5.4c0.2-0.8,0.6-1.4,1.3-1.8   c0.7-0.4,1.9-0.7,3.4-0.7V24.6C224.9,24.7,223.2,26.2,221.9,29z"></path>		<path class="st0" d="M250.2,26c-1.5-0.9-3.5-1.4-5.9-1.4c-1.9,0-3.7,0.4-5.2,1.2c-1.5,0.8-2.6,1.9-3.2,3.4c-0.7,1.5-1,3.5-1,6.1   v8.5c0,2.2,0.1,3.8,0.4,5c0.3,1.1,0.8,2.2,1.6,3.1c0.8,0.9,1.8,1.7,3.2,2.2c1.4,0.5,2.9,0.8,4.7,0.8c1.8,0,3.4-0.3,4.6-0.8   c1.2-0.6,2.2-1.4,3-2.5c0.8-1.1,1.3-2.1,1.5-3.1c0.2-1,0.3-2.4,0.3-4.2v-2.2h-8V46c0,1.5-0.1,2.4-0.3,2.9   c-0.2,0.5-0.6,0.8-1.3,0.8c-0.5,0-0.9-0.2-1-0.6c-0.2-0.4-0.3-1.2-0.3-2.6v-6.3h11v-3.9c0-2.8-0.3-5-0.9-6.6   C252.8,28.2,251.7,27,250.2,26z M245.8,35.5h-2.5v-2.1c0-1.6,0.1-2.7,0.2-3c0.1-0.4,0.5-0.6,1.1-0.6c0.5,0,0.8,0.2,0.9,0.7   c0.2,0.4,0.2,1.4,0.2,2.9V35.5z"></path>		<path class="st0" d="M279.6,26.2c-1.5-1.1-3.6-1.6-6.5-1.6c-2.4,0-4.3,0.5-5.8,1.4c-1.5,0.9-2.5,2-3,3.3c-0.5,1.2-0.7,3-0.7,5.2v2   h7.9v-3.1c0-1.6,0.1-2.6,0.2-3c0.1-0.4,0.5-0.6,1.1-0.6c0.5,0,0.9,0.2,1.1,0.7c0.2,0.5,0.3,1.5,0.3,3c0,1.2-0.1,2-0.3,2.4   c-0.2,0.4-1.7,1.2-4.5,2.3c-2.6,1.1-4.2,2-4.9,2.8c-0.7,0.8-1,2.3-1,4.5v2.4c0,3,0.6,4.9,1.9,5.7c1.2,0.9,2.6,1.3,4.1,1.3   c1.1,0,2.1-0.3,2.9-0.8c0.8-0.5,1.5-1.3,2-2.4v2.6h8.2V39.7c0-4.8-0.1-8-0.4-9.6C281.9,28.6,281.1,27.2,279.6,26.2z M274.2,46.5   c0,1.5-0.1,2.4-0.2,2.7c-0.2,0.3-0.5,0.5-1,0.5c-0.6,0-0.9-0.2-1.1-0.7c-0.2-0.4-0.3-1.4-0.3-2.9c0-1.3,0.1-2.3,0.3-3   c0.2-0.7,1-1.6,2.4-2.6V46.5z"></path>		<path class="st0" d="M318.7,25.7c-0.9-0.7-2.1-1.1-3.6-1.1c-1.1,0-2.1,0.3-3,0.8c-0.9,0.6-1.7,1.4-2.4,2.5   c-1.3-2.2-3.1-3.3-5.3-3.3c-1.2,0-2.2,0.3-3.1,0.8c-0.9,0.6-1.7,1.4-2.3,2.5l0.1-2.8h-8.4v29.3h8.2V34.1c0-1.4,0-2.3,0-2.8   c0-0.4,0.2-0.8,0.4-1.1c0.3-0.3,0.6-0.5,1-0.5c0.6,0,1,0.3,1.1,0.9c0.1,0.6,0.2,2.3,0.2,5.2v18.6h8.2V35.3c0-2.5,0.1-4.1,0.3-4.7   c0.2-0.6,0.6-0.9,1.2-0.9c0.6,0,1,0.3,1.1,0.9c0.2,0.6,0.2,2.1,0.2,4.6v19.1h8.2V33.6c0-2.4-0.1-4.1-0.4-5.2   C320.2,27.3,319.6,26.4,318.7,25.7z"></path>		<path class="st0" d="M343.2,40.9c-0.8-1.1-2.4-2.3-4.8-3.6c-1.8-1-3.1-1.7-3.7-2.2c-0.6-0.5-0.9-1-1.1-1.4c-0.1-0.4-0.2-1.1-0.2-2   c0-0.7,0.1-1.2,0.4-1.5c0.2-0.3,0.6-0.5,1.1-0.5c0.6,0,1,0.2,1.1,0.5c0.1,0.4,0.2,1.2,0.2,2.6v1.6h7.5v-1.7c0-1.5-0.1-2.6-0.2-3.2   c-0.1-0.7-0.6-1.4-1.3-2.2c-0.7-0.8-1.7-1.5-3-2c-1.3-0.5-2.9-0.7-4.7-0.7c-1.9,0-3.5,0.3-4.9,0.9c-1.4,0.6-2.4,1.5-3,2.6   c-0.6,1.1-0.9,2.8-0.9,5.2c0,1.6,0.3,3.1,0.8,4.3c0.5,1.2,2.1,2.5,4.5,4c3,1.7,4.6,2.8,4.9,3.1c0.3,0.4,0.5,1.2,0.5,2.6   c0,1-0.1,1.7-0.4,2c-0.2,0.3-0.7,0.5-1.3,0.5c-0.6,0-0.9-0.2-1.1-0.7c-0.2-0.5-0.3-1.5-0.3-3.1v-1.9H326v1.4   c0,2.4,0.3,4.3,0.9,5.5c0.6,1.2,1.6,2.2,3.2,2.9c1.5,0.7,3.4,1.1,5.5,1.1c1.9,0,3.6-0.3,5-1c1.4-0.7,2.4-1.6,2.9-2.8   c0.6-1.2,0.9-3,0.9-5.4C344.3,43.6,343.9,42,343.2,40.9z"></path>		<path class="st0" d="M57.1,51.2c-0.4,0.3-0.7,0.5-1,0.5c-0.2,0-0.4-0.1-0.5-0.3c-0.2-0.2-0.2-0.5-0.2-0.9c0-0.2,0.1-0.4,0.1-0.6   l0.9-2.7L63.8,27l-4.4,0.7l-1.3,3.4c-0.2-1.5-0.7-2.5-1.3-3.2c-0.7-0.6-1.5-1-2.7-1c-1.8,0-3.9,0.8-6.1,2.5   c-2.9,2.1-5.3,4.9-7.4,8.4c-2.1,3.5-3.3,6.9-3.6,10c-0.2,2.1,0.1,3.7,0.9,4.9c0.8,1.2,1.9,1.8,3.2,1.8c1.4,0,2.8-0.5,4.3-1.4   c2.1-1.4,4.5-3.7,7.2-7.1l-0.8,2.3c-0.6,1.6-0.9,2.9-1,3.9c-0.1,0.8,0,1.4,0.4,1.9c0.3,0.4,0.9,0.6,1.7,0.6c1.1,0,2.4-0.5,3.8-1.6   c1.4-1.1,2.9-2.6,4.3-4.7l-0.8-0.7C58.9,49.5,57.8,50.7,57.1,51.2z M50.9,46.5c-2.6,3.2-4.9,4.8-6.9,4.8c-0.8,0-1.5-0.4-2-1.2   c-0.5-0.8-0.7-1.9-0.6-3.2c0.3-2.7,1.3-5.7,3.1-9c1.8-3.3,3.7-5.8,5.7-7.5c1.4-1.2,2.7-1.8,3.8-1.8c1,0,1.8,0.4,2.3,1.1   c0.5,0.8,0.7,2,0.5,3.7C56.4,37.9,54.4,42.2,50.9,46.5z"></path>		<path class="st0" d="M97.5,47.6l7.4-20.2l-4.4,0.7l-1.3,3.4c-0.2-1.5-0.7-2.5-1.3-3.2c-0.7-0.6-1.5-1-2.7-1   c-1.8,0-3.9,0.8-6.1,2.5c-2.9,2.1-5.3,4.9-7.4,8.4c-2.1,3.5-3.3,6.9-3.6,10c-0.2,2.1,0.1,3.7,0.9,4.9c0.8,1.2,1.9,1.8,3.2,1.8   c1.4,0,2.8-0.5,4.3-1.4c2.1-1.4,4.5-3.7,7.2-7.1L93,48.8c-0.6,1.6-0.9,2.9-1,3.9c-0.1,0.8,0,1.4,0.4,1.9c0.3,0.4,0.9,0.6,1.7,0.6   c1.1,0,2.4-0.5,3.8-1.6c1.4-1.1,2.9-2.6,4.3-4.7l-0.8-0.7c-1.4,1.8-2.4,3-3.2,3.6c-0.4,0.3-0.7,0.5-1,0.5c-0.2,0-0.4-0.1-0.5-0.3   c-0.2-0.2-0.2-0.5-0.2-0.9c0-0.2,0.1-0.4,0.1-0.6L97.5,47.6z M91.9,46.8c-2.6,3.2-4.9,4.8-6.9,4.8c-0.8,0-1.5-0.4-2-1.2   c-0.5-0.8-0.7-1.9-0.6-3.2c0.3-2.7,1.3-5.7,3.1-9c1.8-3.3,3.7-5.8,5.7-7.5c1.4-1.2,2.7-1.8,3.8-1.8c1,0,1.8,0.4,2.3,1.2   c0.5,0.8,0.7,2,0.5,3.7C97.5,38.2,95.5,42.6,91.9,46.8z"></path>		<path class="st0" d="M75.1,29.6l4.2,0l0.7-1.9l-4.2,0l3-8.1h-1.2c-1.9,2.9-3.6,5-5,6.1c-1.4,1.2-3.2,2.1-5.2,2.7l-0.4,1.2l4.1,0   l-6.3,17.3c-0.8,2.2-1.2,3.8-1.4,4.9c-0.1,0.9,0.1,1.6,0.5,2.1c0.4,0.5,1.1,0.8,1.8,0.8c1,0,2.1-0.4,3.2-1.1   c1.6-1.1,3.3-3,5.3-5.6l-0.8-0.8c-1.7,2-2.8,3.3-3.3,3.7c-0.8,0.7-1.4,1.1-1.9,1.1c-0.2,0-0.4-0.1-0.5-0.3   c-0.1-0.2-0.2-0.4-0.1-0.8c0.1-0.5,0.4-1.8,1.1-3.7L75.1,29.6z"></path>	</g></g></svg>