<svg width="160" height="26" viewBox="0 0 160 26" fill="none" xmlns="http://www.w3.org/2000/svg">
<path d="M113.75 12.2112L112.901 12.2112C113.043 12.4367 113.149 12.6741 113.22 12.9352C113.29 13.1963 113.326 13.4633 113.326 13.7363C113.326 14.2169 113.243 14.6561 113.084 15.0536C112.919 15.4572 112.695 15.8013 112.401 16.0862C112.094 16.3829 111.746 16.6083 111.346 16.7626C110.945 16.9228 110.509 17 110.038 17C109.566 17 109.112 16.9228 108.712 16.7626C108.311 16.6024 107.963 16.3769 107.675 16.0862C107.38 15.8013 107.156 15.4572 106.991 15.0536C106.832 14.6501 106.749 14.211 106.749 13.7363C106.749 13.4633 106.785 13.1963 106.861 12.9352C106.938 12.6741 107.038 12.4367 107.174 12.2112L106.325 12.2112L106.325 10.5675L109.124 10.5675L109.124 9.39258L110.945 9.39258L110.945 10.5675L113.744 10.5675L113.744 12.2112L113.75 12.2112ZM117.097 22.0736L108.706 22.0736C108.293 22.0736 107.952 21.9371 107.681 21.6523C107.415 21.3734 107.28 21.0411 107.28 20.6554L107.28 17.4213L109.112 17.4213L109.112 20.1806C109.112 20.2637 109.124 20.323 109.154 20.3646C109.183 20.4061 109.242 20.4239 109.319 20.4239L115.253 20.4239L115.27 10.1759L117.085 10.1759L117.085 12.4783L119.006 12.4783L119.006 14.1279L117.085 14.1279L117.085 22.0736L117.097 22.0736ZM110.038 12.1163C109.59 12.1163 109.236 12.2646 108.977 12.5495C108.712 12.8402 108.582 13.2319 108.582 13.7303C108.582 14.2288 108.712 14.6264 108.977 14.9112C109.236 15.202 109.59 15.3444 110.038 15.3444C110.485 15.3444 110.821 15.202 111.086 14.9112C111.352 14.6204 111.487 14.2288 111.487 13.7303C111.487 13.2319 111.352 12.8402 111.086 12.5495C110.821 12.2587 110.468 12.1163 110.038 12.1163Z" fill="#4D555A"/>
<path d="M129.233 14.3361L129.233 12.2355C129.233 12.1654 129.215 12.1071 129.18 12.0604C129.145 12.0137 129.092 11.9904 129.021 11.9904L120.429 11.9904L120.429 10.3682L129.639 10.3682C130.045 10.3682 130.38 10.5082 130.651 10.7883C130.922 11.0684 131.063 11.3952 131.063 11.7628L131.063 14.3303L131.687 14.3303L131.687 15.9525L126.667 15.9525L126.667 17.9948L129.645 17.9948C130.051 17.9948 130.386 18.1349 130.657 18.415C130.928 18.6951 131.069 19.0219 131.069 19.3895L131.069 22.0737L129.239 22.0737L129.239 19.868C129.239 19.7863 129.221 19.7279 129.186 19.6812C129.15 19.6346 129.098 19.6171 129.027 19.6171L120.435 19.6171L120.435 17.9948L124.837 17.9948L124.837 15.9525L119.981 15.9525L119.981 14.3303L129.239 14.3303L129.233 14.3361Z" fill="#4D555A"/>
<path d="M137.892 12.1803C137.96 12.6785 138.193 13.0759 138.595 13.3784C138.991 13.6809 139.541 13.8707 140.238 13.9478L140.238 15.5967C139.45 15.5967 138.787 15.4602 138.244 15.1755C137.7 14.8968 137.269 14.5469 136.946 14.1317C136.606 14.5469 136.164 14.8968 135.626 15.1755C135.088 15.4543 134.425 15.5967 133.638 15.5967L133.638 13.9478C134.335 13.8647 134.884 13.6749 135.281 13.3784C135.677 13.0818 135.915 12.6785 135.983 12.1803L133.683 12.1803L133.683 10.5373L136.04 10.5373L136.04 9.39258L137.83 9.39258L137.83 10.5373L140.187 10.5373L140.187 12.1803L137.887 12.1803L137.892 12.1803ZM135.53 22.0736C135.105 22.0736 134.765 21.9312 134.521 21.6465C134.278 21.3618 134.159 21.0237 134.159 20.6263L134.159 18.2776L142.487 18.2776L142.487 17.6489L134.159 17.6489L134.159 16.0771L143.32 16.0771C143.609 16.0771 143.841 16.1661 144.005 16.344C144.169 16.5219 144.249 16.7592 144.249 17.0498L144.249 19.7307L135.909 19.7307L135.909 20.4188L144.368 20.4188L144.368 22.0617L135.53 22.0617L135.53 22.0736ZM144.254 15.5967L142.493 15.5967L142.493 13.7224L140.748 13.7224L140.748 12.0735L142.493 12.0735L142.493 10.1814L144.254 10.1814L144.254 15.5907L144.254 15.5967Z" fill="#4D555A"/>
<path d="M147.886 15.4502L147.886 11.7344C147.886 11.3743 148.022 11.0541 148.289 10.7797C148.555 10.5053 148.892 10.3682 149.3 10.3682L158.421 10.3682L158.421 11.9574L149.939 11.9574C149.85 11.9574 149.791 11.9803 149.756 12.026C149.726 12.0717 149.708 12.1289 149.708 12.1975L149.708 15.0043C149.708 15.0843 149.726 15.1415 149.756 15.1815C149.791 15.2215 149.844 15.2387 149.939 15.2387L158.421 15.2387L158.421 16.8222L154.062 16.8222L154.062 19.509L159 19.509L159 21.0982L147.295 21.0982L147.295 19.509L152.234 19.509L152.234 16.8222L149.3 16.8222C148.892 16.8222 148.555 16.6907 148.289 16.4163C148.022 16.1419 147.886 15.8275 147.886 15.4559L147.886 15.4502Z" fill="#4D555A"/>
<path d="M80.5465 5.44141C79.5349 5.44141 79.108 5.80914 78.9033 6.7641L76.459 22.0553H81.7453L84.5931 5.44141H80.5465Z" fill="#0066B3"/>
<path d="M18.812 5.42969H14.1982C13.4847 5.42969 13.0871 5.66102 12.6134 6.10588L7.33883 11.3077L8.61363 5.42969H4.43254C3.43843 5.42969 3.0291 5.7915 2.82443 6.72273L0 22.0554H5.23952L6.68389 14.8369L11.5667 22.0554H18.0986L11.5959 12.6601L18.8061 5.42969H18.812Z" fill="#0066B3"/>
<path d="M90.5671 18.1643L92.7249 5.44141H88.6783C87.6784 5.44141 87.2574 5.79133 87.041 6.7107L84.5908 22.0553H97.5083L97.9995 18.1584H90.5613L90.5671 18.1643Z" fill="#0066B3"/>
<path d="M67.5404 10.6365L69.6456 22.0604H75.2477L71.8034 5.44653H66.6341C65.8212 5.44653 65.4821 5.68379 65.1195 6.27101L58.3538 19.854L53.6756 15.5715C55.7925 14.9665 58.1491 13.3175 58.8099 10.5476C59.9853 5.63042 55.8919 5.42875 54.5294 5.42875H47.0151C46.0444 5.42875 45.869 5.64228 45.6643 6.53793L44.2199 13.4302C40.5359 10.9924 32.1737 6.05748 26.2851 5.98037C24.8056 5.95665 23.7238 6.18798 22.6771 6.84043C22.5192 6.94127 22.4783 6.92348 22.4549 6.91755L22.5367 6.74551C23.1741 5.96256 24.4665 4.69919 26.6418 4.01707C26.6418 4.01707 30.1153 2.78927 34.7818 5.65415C37.4951 7.32681 39.3196 8.72662 41.0914 10.2095C39.7464 4.55683 34.542 0.523459 28.5949 1.04542C23.2034 1.50808 18.9638 5.55332 17.958 10.6603C20.8351 8.04451 26.3494 7.11919 34.7818 10.0434C36.6764 10.7018 38.4249 11.4136 40.0213 12.1431C41.4774 12.8015 42.9568 13.5904 44.5006 14.4919C47.6817 16.3485 51.2371 18.9346 54.1142 22.0486H62.0086L67.5346 10.6247L67.5404 10.6365ZM49.6115 13.7031C49.7752 12.9024 50.6582 8.56648 50.7752 7.99707H52.7224C52.7224 7.99707 54.6756 7.87843 53.9738 10.5476C53.9738 10.5476 53.2019 13.7031 49.6115 13.7031Z" fill="url(#paint0_radial_7962_4333)"/>
<path d="M48.7935 17.8435C48.3725 19.706 47.9222 22.0548 47.9222 22.0548H42.4196L43.671 16.0759C42.443 15.6667 41.5834 15.4235 41.1916 15.3226C40.1858 20.4177 36.0281 24.4926 30.6482 24.9553C27.1513 25.2578 23.8883 24.024 21.5141 21.776L21.5024 21.7641C21.5024 21.7641 19.216 19.6526 19.3914 16.6038C19.5669 13.4721 22.286 12.1968 22.286 12.1968C25.4496 10.4767 32.4493 10.2928 42.3436 14.5931C42.3436 14.5931 45.665 15.9158 48.7935 17.8376V17.8435Z" fill="url(#paint1_radial_7962_4333)"/>
<defs>
<radialGradient id="paint0_radial_7962_4333" cx="0" cy="0" r="1" gradientUnits="userSpaceOnUse" gradientTransform="translate(28.1524 9.73068) scale(14.3857 14.5918)">
<stop stop-color="#00AFDC"/>
<stop offset="0.2" stop-color="#00AFDC"/>
<stop offset="1" stop-color="#0066B3"/>
</radialGradient>
<radialGradient id="paint1_radial_7962_4333" cx="0" cy="0" r="1" gradientUnits="userSpaceOnUse" gradientTransform="translate(27.5335 6.54887) scale(14.3235 14.5287)">
<stop stop-color="#00AFDC"/>
<stop offset="0.2" stop-color="#00AFDC"/>
<stop offset="1" stop-color="#0066B3"/>
</radialGradient>
</defs>
</svg>
