<svg width="601" height="82" viewBox="0 0 601 82" fill="none" xmlns="http://www.w3.org/2000/svg">
<path d="M35.5291 18.6237C35.2876 16.1888 34.2513 14.2972 32.4201 12.949C30.5889 11.6007 28.1037 10.9266 24.9645 10.9266C22.8314 10.9266 21.0304 11.2284 19.5614 11.8321C18.0924 12.4157 16.9656 13.2307 16.1808 14.2771C15.4161 15.3235 15.0337 16.5107 15.0337 17.8389C14.9935 18.9456 15.2249 19.9115 15.728 20.7366C16.2512 21.5616 16.9656 22.276 17.8711 22.8797C18.7766 23.4633 19.823 23.9764 21.0103 24.4191C22.1976 24.8417 23.4653 25.2039 24.8136 25.5058L30.3675 26.8339C33.064 27.4376 35.5392 28.2425 37.793 29.2487C40.0468 30.2548 41.9987 31.4924 43.6488 32.9614C45.2989 34.4304 46.5767 36.161 47.4822 38.1531C48.4079 40.1453 48.8808 42.4293 48.9009 45.0051C48.8808 48.7882 47.9149 52.0683 46.0032 54.8453C44.1116 57.6021 41.3749 59.7452 37.793 61.2746C34.2312 62.7838 29.9349 63.5384 24.9041 63.5384C19.9136 63.5384 15.567 62.7738 11.8643 61.2444C8.18182 59.7151 5.30421 57.4512 3.23153 54.4529C1.17898 51.4344 0.102391 47.7016 0.00177551 43.2543H12.6491C12.79 45.327 13.3836 47.0576 14.43 48.4461C15.4966 49.8145 16.9152 50.8508 18.6861 51.5551C20.477 52.2393 22.4994 52.5814 24.7532 52.5814C26.9667 52.5814 28.8885 52.2594 30.5185 51.6155C32.1686 50.9716 33.4464 50.0761 34.3519 48.9291C35.2575 47.782 35.7102 46.464 35.7102 44.9749C35.7102 43.5864 35.2977 42.4192 34.4727 41.4735C33.6677 40.5277 32.4805 39.7227 30.9109 39.0587C29.3614 38.3946 27.4598 37.7909 25.206 37.2476L18.4748 35.5573C13.2629 34.2895 9.14773 32.3074 6.12926 29.6109C3.1108 26.9144 1.61162 23.2822 1.63175 18.7142C1.61162 14.9713 2.60772 11.7013 4.62003 8.90421C6.65246 6.1071 9.43951 3.92374 12.9812 2.35414C16.5228 0.784533 20.5475 -0.000268638 25.055 -0.000268638C29.6431 -0.000268638 33.6476 0.784533 37.0685 2.35414C40.5096 3.92374 43.186 6.1071 45.0977 8.90421C47.0094 11.7013 47.9954 14.9411 48.0558 18.6237H35.5291ZM70.6716 63.5384C67.7135 63.5384 65.0774 63.0253 62.7632 61.999C60.4491 60.9526 58.6179 59.4132 57.2696 57.3808C55.9415 55.3282 55.2774 52.7726 55.2774 49.7139C55.2774 47.1381 55.7503 44.9749 56.6961 43.2242C57.6419 41.4735 58.9298 40.0648 60.5597 38.9983C62.1897 37.9318 64.041 37.1269 66.1137 36.5835C68.2065 36.0402 70.3999 35.6579 72.694 35.4365C75.3905 35.1548 77.5638 34.8932 79.2139 34.6517C80.864 34.3901 82.0613 34.0078 82.8058 33.5047C83.5504 33.0016 83.9227 32.2571 83.9227 31.271V31.0899C83.9227 29.1782 83.319 27.6992 82.1116 26.6528C80.9243 25.6064 79.234 25.0832 77.0406 25.0832C74.7264 25.0832 72.8852 25.5963 71.5168 26.6226C70.1484 27.6288 69.2429 28.8965 68.8002 30.4259L56.9074 29.46C57.5111 26.6427 58.6984 24.2078 60.4692 22.1553C62.24 20.0826 64.524 18.4929 67.3211 17.3861C70.1383 16.2592 73.3983 15.6958 77.1009 15.6958C79.6767 15.6958 82.1418 15.9976 84.4962 16.6013C86.8707 17.205 88.9736 18.1407 90.8048 19.4085C92.6561 20.6762 94.115 22.3062 95.1816 24.2984C96.2481 26.2704 96.7813 28.6349 96.7813 31.3918V62.6631H84.5867V56.2338H84.2245C83.48 57.6826 82.4839 58.9604 81.2362 60.0672C79.9886 61.1539 78.4894 62.0091 76.7387 62.6329C74.988 63.2366 72.9656 63.5384 70.6716 63.5384ZM74.3541 54.6642C76.2457 54.6642 77.9159 54.2919 79.3648 53.5473C80.8137 52.7826 81.9506 51.7564 82.7757 50.4685C83.6007 49.1806 84.0132 47.7217 84.0132 46.0917V41.1716C83.6108 41.4332 83.0574 41.6747 82.3531 41.896C81.6689 42.0973 80.8941 42.2884 80.0289 42.4695C79.1636 42.6305 78.2983 42.7815 77.433 42.9223C76.5677 43.0431 75.7829 43.1537 75.0786 43.2543C73.5693 43.4757 72.2513 43.8279 71.1244 44.3108C69.9975 44.7938 69.1221 45.4478 68.4983 46.2728C67.8745 47.0777 67.5626 48.0839 67.5626 49.2913C67.5626 51.042 68.1965 52.3802 69.4642 53.3058C70.7521 54.2114 72.3821 54.6642 74.3541 54.6642ZM106.757 62.6631V16.2994H119.012V24.4795H119.556C120.522 21.7629 122.131 19.6198 124.385 18.0502C126.639 16.4806 129.335 15.6958 132.475 15.6958C135.654 15.6958 138.361 16.4906 140.594 18.0803C142.828 19.6499 144.317 21.783 145.062 24.4795H145.545C146.49 21.8232 148.201 19.7003 150.676 18.1105C153.171 16.5007 156.119 15.6958 159.52 15.6958C163.847 15.6958 167.358 17.0742 170.055 19.8311C172.771 22.5678 174.13 26.4516 174.13 31.4823V62.6631H161.301V34.0178C161.301 31.4421 160.617 29.5103 159.248 28.2224C157.88 26.9345 156.17 26.2906 154.117 26.2906C151.783 26.2906 149.962 27.0351 148.654 28.5242C147.346 29.9932 146.692 31.9351 146.692 34.3499V62.6631H134.225V33.7462C134.225 31.4723 133.571 29.6612 132.263 28.3129C130.976 26.9647 129.275 26.2906 127.162 26.2906C125.733 26.2906 124.446 26.6528 123.299 27.3772C122.172 28.0815 121.276 29.0776 120.612 30.3655C119.948 31.6333 119.616 33.1224 119.616 34.8328V62.6631H106.757ZM222.863 29.5203L211.091 30.2448C210.889 29.2386 210.457 28.3331 209.793 27.5281C209.129 26.7031 208.253 26.0491 207.167 25.5661C206.1 25.0631 204.822 24.8115 203.333 24.8115C201.341 24.8115 199.661 25.2341 198.292 26.0793C196.924 26.9043 196.24 28.0111 196.24 29.3996C196.24 30.5064 196.682 31.4421 197.568 32.2068C198.453 32.9714 199.973 33.5852 202.126 34.048L210.517 35.7384C215.025 36.664 218.385 38.1531 220.599 40.2057C222.812 42.2583 223.919 44.9548 223.919 48.2952C223.919 51.3338 223.024 54.0001 221.233 56.2941C219.462 58.5882 217.027 60.3791 213.928 61.667C210.849 62.9347 207.297 63.5686 203.273 63.5686C197.135 63.5686 192.245 62.2908 188.603 59.7352C184.981 57.1594 182.858 53.658 182.234 49.2309L194.881 48.5668C195.264 50.4383 196.189 51.867 197.658 52.8531C199.127 53.819 201.009 54.3019 203.303 54.3019C205.557 54.3019 207.368 53.8693 208.736 53.004C210.125 52.1186 210.829 50.9816 210.849 49.5931C210.829 48.426 210.336 47.4701 209.37 46.7256C208.404 45.9609 206.915 45.3773 204.903 44.9749L196.874 43.3751C192.346 42.4695 188.975 40.8999 186.762 38.6663C184.568 36.4326 183.472 33.5852 183.472 30.124C183.472 27.1458 184.277 24.5801 185.886 22.4269C187.516 20.2738 189.8 18.6136 192.738 17.4465C195.696 16.2793 199.158 15.6958 203.122 15.6958C208.978 15.6958 213.586 16.9333 216.946 19.4085C220.327 21.8836 222.299 25.2542 222.863 29.5203ZM261.748 42.9223V16.2994H274.607V62.6631H262.261V54.2416H261.778C260.732 56.9582 258.991 59.1415 256.556 60.7916C254.142 62.4417 251.193 63.2668 247.712 63.2668C244.613 63.2668 241.887 62.5625 239.532 61.1539C237.178 59.7452 235.336 57.743 234.008 55.1471C232.7 52.5512 232.036 49.4422 232.016 45.82V16.2994H244.875V43.526C244.895 46.2628 245.629 48.426 247.078 50.0157C248.527 51.6054 250.469 52.4003 252.904 52.4003C254.453 52.4003 255.902 52.0481 257.251 51.3438C258.599 50.6194 259.685 49.5529 260.51 48.1443C261.356 46.7356 261.768 44.995 261.748 42.9223ZM297.751 35.8591V62.6631H284.892V16.2994H297.147V24.4795H297.69C298.717 21.783 300.437 19.6499 302.852 18.0803C305.267 16.4906 308.195 15.6958 311.636 15.6958C314.855 15.6958 317.663 16.4001 320.057 17.8087C322.452 19.2173 324.313 21.2296 325.641 23.8456C326.97 26.4415 327.634 29.5405 327.634 33.1425V62.6631H314.775V35.4365C314.795 32.5992 314.071 30.3856 312.602 28.7959C311.133 27.186 309.11 26.3811 306.535 26.3811C304.804 26.3811 303.275 26.7534 301.946 27.498C300.638 28.2425 299.612 29.3292 298.868 30.7579C298.143 32.1665 297.771 33.8669 297.751 35.8591ZM358.656 81.0154C354.49 81.0154 350.919 80.4419 347.94 79.2948C344.982 78.1679 342.628 76.6285 340.877 74.6766C339.126 72.7246 337.989 70.5312 337.466 68.0963L349.359 66.4965C349.721 67.4222 350.295 68.2875 351.08 69.0924C351.864 69.8973 352.901 70.5413 354.189 71.0242C355.497 71.5273 357.086 71.7789 358.958 71.7789C361.755 71.7789 364.059 71.0947 365.87 69.7263C367.701 68.378 368.617 66.1142 368.617 62.9347V54.4529H368.074C367.51 55.7407 366.665 56.9582 365.538 58.1052C364.411 59.2522 362.962 60.1879 361.191 60.9124C359.421 61.6368 357.308 61.999 354.853 61.999C351.371 61.999 348.202 61.1941 345.344 59.5843C342.507 57.9543 340.243 55.4691 338.553 52.1286C336.883 48.7681 336.048 44.5221 336.048 39.3907C336.048 34.1386 336.903 29.7517 338.613 26.2302C340.324 22.7087 342.598 20.0725 345.435 18.3218C348.292 16.5711 351.422 15.6958 354.822 15.6958C357.418 15.6958 359.592 16.1385 361.342 17.0239C363.093 17.8892 364.502 18.9758 365.568 20.2838C366.655 21.5717 367.49 22.8395 368.074 24.0871H368.556V16.2994H381.325V63.1159C381.325 67.06 380.359 70.3602 378.427 73.0164C376.495 75.6727 373.819 77.6649 370.398 78.993C366.997 80.3412 363.083 81.0154 358.656 81.0154ZM358.928 52.3399C361 52.3399 362.751 51.8268 364.18 50.8005C365.629 49.7541 366.735 48.265 367.5 46.3332C368.285 44.3812 368.677 42.047 368.677 39.3303C368.677 36.6137 368.295 34.2593 367.53 32.2671C366.766 30.2548 365.659 28.6953 364.21 27.5885C362.761 26.4817 361 25.9284 358.928 25.9284C356.815 25.9284 355.034 26.5019 353.585 27.6489C352.136 28.7758 351.039 30.3454 350.295 32.3577C349.55 34.37 349.178 36.6942 349.178 39.3303C349.178 42.0067 349.55 44.3209 350.295 46.2728C351.059 48.2046 352.156 49.7038 353.585 50.7703C355.034 51.8167 356.815 52.3399 358.928 52.3399ZM466.015 22.4873H452.794C452.553 20.7768 452.06 19.2575 451.315 17.9294C450.571 16.5812 449.615 15.4342 448.448 14.4884C447.281 13.5426 445.932 12.8181 444.403 12.3151C442.894 11.812 441.254 11.5605 439.483 11.5605C436.283 11.5605 433.496 12.3553 431.122 13.945C428.747 15.5146 426.906 17.8087 425.598 20.8271C424.29 23.8255 423.636 27.4678 423.636 31.754C423.636 36.161 424.29 39.8636 425.598 42.8619C426.926 45.8603 428.777 48.1241 431.152 49.6535C433.526 51.1829 436.273 51.9475 439.392 51.9475C441.143 51.9475 442.763 51.7161 444.252 51.2533C445.761 50.7905 447.099 50.1163 448.267 49.2309C449.434 48.3254 450.4 47.2287 451.164 45.9408C451.949 44.6529 452.492 43.1839 452.794 41.5338L466.015 41.5942C465.673 44.4316 464.818 47.1683 463.449 49.8044C462.101 52.4204 460.28 54.7648 457.986 56.8374C455.712 58.89 452.996 60.52 449.836 61.7274C446.697 62.9146 443.145 63.5083 439.181 63.5083C433.667 63.5083 428.737 62.2606 424.391 59.7654C420.064 57.2701 416.643 53.658 414.128 48.9291C411.632 44.2001 410.385 38.4751 410.385 31.754C410.385 25.0128 411.653 19.2777 414.188 14.5487C416.724 9.81981 420.165 6.21777 424.511 3.74263C428.858 1.24736 433.748 -0.000268638 439.181 -0.000268638C442.763 -0.000268638 446.083 0.502809 449.142 1.50896C452.221 2.51512 454.947 3.98411 457.322 5.91592C459.697 7.82762 461.628 10.172 463.117 12.949C464.627 15.7259 465.593 18.9054 466.015 22.4873ZM488.367 63.5384C485.409 63.5384 482.773 63.0253 480.459 61.999C478.144 60.9526 476.313 59.4132 474.965 57.3808C473.637 55.3282 472.973 52.7726 472.973 49.7139C472.973 47.1381 473.446 44.9749 474.391 43.2242C475.337 41.4735 476.625 40.0648 478.255 38.9983C479.885 37.9318 481.736 37.1269 483.809 36.5835C485.902 36.0402 488.095 35.6579 490.389 35.4365C493.086 35.1548 495.259 34.8932 496.909 34.6517C498.559 34.3901 499.757 34.0078 500.501 33.5047C501.246 33.0016 501.618 32.2571 501.618 31.271V31.0899C501.618 29.1782 501.014 27.6992 499.807 26.6528C498.62 25.6064 496.929 25.0832 494.736 25.0832C492.422 25.0832 490.58 25.5963 489.212 26.6226C487.844 27.6288 486.938 28.8965 486.495 30.4259L474.603 29.46C475.206 26.6427 476.394 24.2078 478.165 22.1553C479.935 20.0826 482.219 18.4929 485.016 17.3861C487.834 16.2592 491.094 15.6958 494.796 15.6958C497.372 15.6958 499.837 15.9976 502.191 16.6013C504.566 17.205 506.669 18.1407 508.5 19.4085C510.351 20.6762 511.81 22.3062 512.877 24.2984C513.943 26.2704 514.477 28.6349 514.477 31.3918V62.6631H502.282V56.2338H501.92C501.175 57.6826 500.179 58.9604 498.932 60.0672C497.684 61.1539 496.185 62.0091 494.434 62.6329C492.683 63.2366 490.661 63.5384 488.367 63.5384ZM492.049 54.6642C493.941 54.6642 495.611 54.2919 497.06 53.5473C498.509 52.7826 499.646 51.7564 500.471 50.4685C501.296 49.1806 501.709 47.7217 501.709 46.0917V41.1716C501.306 41.4332 500.753 41.6747 500.048 41.896C499.364 42.0973 498.589 42.2884 497.724 42.4695C496.859 42.6305 495.994 42.7815 495.128 42.9223C494.263 43.0431 493.478 43.1537 492.774 43.2543C491.265 43.4757 489.947 43.8279 488.82 44.3108C487.693 44.7938 486.817 45.4478 486.194 46.2728C485.57 47.0777 485.258 48.0839 485.258 49.2913C485.258 51.042 485.892 52.3802 487.16 53.3058C488.447 54.2114 490.077 54.6642 492.049 54.6642ZM524.453 62.6631V16.2994H536.919V24.3889H537.402C538.247 21.5113 539.666 19.338 541.658 17.8691C543.65 16.3799 545.944 15.6354 548.54 15.6354C549.184 15.6354 549.878 15.6756 550.623 15.7561C551.367 15.8366 552.021 15.9473 552.585 16.0882V27.498C551.981 27.3168 551.146 27.1559 550.079 27.015C549.013 26.8741 548.037 26.8037 547.152 26.8037C545.26 26.8037 543.57 27.2162 542.081 28.0413C540.612 28.8462 539.444 29.9731 538.579 31.422C537.734 32.8708 537.311 34.541 537.311 36.4326V62.6631H524.453ZM574.159 63.4177C570.638 63.4177 567.448 62.5122 564.591 60.7011C561.753 58.8699 559.5 56.1834 557.829 52.6418C556.179 49.08 555.354 44.7133 555.354 39.5416C555.354 34.2291 556.209 29.8121 557.92 26.2906C559.63 22.7489 561.904 20.1027 564.742 18.352C567.599 16.5812 570.728 15.6958 574.129 15.6958C576.725 15.6958 578.888 16.1385 580.619 17.0239C582.369 17.8892 583.778 18.9758 584.845 20.2838C585.931 21.5717 586.756 22.8395 587.32 24.0871H587.712V0.844902H600.541V62.6631H587.863V55.2377H587.32C586.716 56.5255 585.861 57.8034 584.754 59.0711C583.667 60.3187 582.249 61.3551 580.498 62.1801C578.767 63.0052 576.655 63.4177 574.159 63.4177ZM578.234 53.1851C580.307 53.1851 582.058 52.6217 583.486 51.4948C584.935 50.3477 586.042 48.748 586.807 46.6954C587.591 44.6428 587.984 42.2381 587.984 39.4813C587.984 36.7244 587.602 34.3298 586.837 32.2973C586.072 30.2649 584.965 28.6953 583.517 27.5885C582.068 26.4817 580.307 25.9284 578.234 25.9284C576.121 25.9284 574.34 26.5019 572.892 27.6489C571.443 28.7959 570.346 30.3856 569.601 32.4181C568.857 34.4505 568.485 36.8049 568.485 39.4813C568.485 42.1778 568.857 44.5624 569.601 46.635C570.366 48.6876 571.463 50.2974 572.892 51.4646C574.34 52.6116 576.121 53.1851 578.234 53.1851Z" fill="white"/>
</svg>
